<svg xmlns="http://www.w3.org/2000/svg" viewBox="0 0 600 400"><rect width="600" height="400" rx="18" fill="#f6f3ec"/><g stroke="#83766b" stroke-width="1.5" stroke-linejoin="round"><path d="M276 35h48v135l65 58-28 25-62-56-70 56-26-26 73-66Z" fill="#c7b6a5"/><path d="M255 150Q90 130 100 330Q175 354 268 302Z" fill="#d6b3b1"/><path d="M340 148q150-10 157 185q-96 20-158-31Z" fill="#d6b3b1"/><path d="M290 170l-60 60-70 50M230 230l10 60M305 170l70 65 65 40M375 235l-5 67" fill="none" stroke="#b18b83" stroke-width="12"/><path d="M280 55h40M280 80h40M280 105h40M280 130h40" stroke="#938775" stroke-width="5"/><path d="M85 354q205-78 425 0" fill="none" stroke="#9b697a" stroke-width="12"/></g><text x="20" y="381" font-family="sans-serif" font-size="12" fill="#756b62">Teaching schematic · not to scale</text></svg>