<svg xmlns="http://www.w3.org/2000/svg" viewBox="0 0 600 400"><rect width="600" height="400" rx="18" fill="#f6f3ec"/><g stroke="#83766b" stroke-width="1.5" stroke-linejoin="round"><path d="M215 40q30-25 55 5q30-28 63-3q35 37-6 78l-10 155q44 52 8 75q-35 20-52-8q-32 22-61-3q-25-36 15-70l-6-148q-37-44-6-81Z" fill="#dfd0b4"/><path d="M245 128h47v141h-47Z" fill="#c59e89"/><path d="M229 127l5 143M305 127l-4 142" stroke="#9a846b" stroke-width="7"/><path d="M214 60l34 24-28 19M299 55l-21 36 35 7M235 299l27 25 33-27" fill="none" stroke="#b6a68a" stroke-width="7"/></g><text x="20" y="381" font-family="sans-serif" font-size="12" fill="#756b62">Teaching schematic · not to scale</text></svg>